<svg id="Layer_1" width="300" height="300" enable-background="new 0 0 500 500" viewBox="0 0 500 500" xmlns="http://www.w3.org/2000/svg">
<g clip-rule="evenodd" fill-rule="evenodd">
<path d="m471.08 175c-2.71-21.72-7.43-42.78-15.91-61.93-13.2-30.74-37.5-55.04-68.24-68.24-38.06-16.84-83.72-18.87-126.98-19.73-6.66-.13-13.23-.13-19.89 0-43.27.86-88.92 2.89-126.98 19.73-30.74 13.2-55.04 37.5-68.24 68.24-8.47 19.15-13.19 40.21-15.91 61.93z" fill="#118943"></path>
<path d="m474.9 240.06c-.43-21.5-1.14-43.6-3.82-65.06h-442.16c-2.68 21.46-3.4 43.55-3.82 65.06-.13 6.66-.13 13.23 0 19.89.43 21.51 1.15 43.6 3.82 65.06h442.15c2.68-21.46 3.4-43.55 3.82-65.06.14-6.66.14-13.24.01-19.89z" fill="#fbdd03"></path>
<path d="m28.92 325c2.71 21.72 7.43 42.78 15.91 61.93 13.17 30.66 37.53 55.05 68.24 68.24 38.06 16.84 83.71 18.87 126.98 19.73 3.22.06 6.43.1 9.63.1h.32.31c3.2 0 6.41-.04 9.63-.1 43.27-.86 88.92-2.89 126.98-19.73 30.74-13.2 55.04-37.5 68.24-68.24 8.47-19.15 13.2-40.21 15.91-61.93z" fill="#da1f27"></path>
<ellipse cx="250" cy="250" fill="#274da1" rx="122.64" ry="122.64" transform="matrix(.707 -.707 .707 .707 -103.553 250)"></ellipse>
<path d="m277.6 269.26-17.06 12.4 27.74 20.23zm.19-40.71 6.52 20.05 27.81-20.12zm-38.65-12.77h21.08l-10.54-32.66zm-24.07 32.82 6.52-20.05-34.32-.07zm23.77 33.06-17.06-12.4-10.67 32.63zm-12.89-25.17v-.01l9.06-27.89h29.35l9.06 27.89-.01.01v.01l-23.73 17.24zm29.81-96.1 17.88 55.41 78.01-.15-63.19 45.73 24.24 74.13-63.02-45.97-63.02 45.97 24.24-74.13-63.19-45.73 78.01.15 23.96-74.24z" fill="#fbdd03"></path>
<path d="m174.96 41.77c-88 11.09-123.21 54-133.19 133.19-5.33 42.31-5.33 107.77 0 150.08 11.08 87.97 54.04 123.22 133.19 133.19 42.31 5.33 107.77 5.33 150.08 0 87.96-11.08 123.22-54.05 133.19-133.19 5.33-42.31 5.33-107.77 0-150.08-9.97-79.15-45.22-122.11-133.19-133.19-42.31-5.33-107.77-5.33-150.08 0zm-4.73-37.43c45.95-5.79 113.59-5.79 159.54 0 106.05 13.36 153.75 69.59 165.88 165.88 5.79 45.95 5.79 113.59 0 159.54-12.13 96.29-59.84 152.52-165.88 165.88-45.95 5.79-113.59 5.79-159.54 0-96.3-12.12-152.52-59.81-165.89-165.87-5.79-45.95-5.79-113.59 0-159.54 12.15-96.37 59.75-152.51 165.89-165.89z" fill="#b4b4b4">
</path>
</g>
</svg>